<svg width="40" height="52" viewBox="0 0 40 52" fill="none" xmlns="http://www.w3.org/2000/svg">
<path fill-rule="evenodd" clip-rule="evenodd" d="M23.6418 0.929542C24.8074 1.29696 25.6 2.37789 25.6 3.60001V17.6L36.8 17.6C37.8441 17.6 38.8014 18.1809 39.2835 19.1069C39.7657 20.033 39.6926 21.1504 39.0939 22.0057L19.4939 50.0057C18.793 51.0069 17.5238 51.4379 16.3582 51.0705C15.1926 50.7031 14.4 49.6221 14.4 48.4L14.4 34.4H3.2C2.15595 34.4 1.19862 33.8191 0.716462 32.8931C0.234308 31.967 0.307429 30.8496 0.906153 29.9943L20.5062 1.99431C21.207 0.993116 22.4762 0.562125 23.6418 0.929542Z" fill="#FF7500"/>
</svg>
